<svg width="20" height="20" viewBox="0 0 20 20" fill="#f8fafb" xmlns="http://www.w3.org/2000/svg">
<path fill-rule="evenodd" clip-rule="evenodd" d="M7.16782 15.9987C6.96143 15.8152 6.94284 15.4992 7.1263 15.2928L9.76412 12.3253C10.335 11.683 10.7309 11.2362 10.9897 10.8575C11.2406 10.4905 11.3241 10.2409 11.3241 9.99999C11.3241 9.75907 11.2406 9.50952 10.9897 9.14251C10.7309 8.76377 10.335 8.31696 9.76412 7.67472L7.1263 4.70718C6.94284 4.50078 6.96143 4.18475 7.16782 4.00129C7.37421 3.81783 7.69025 3.83642 7.87371 4.04281L10.5115 7.01036L10.5342 7.03581C11.077 7.64653 11.5162 8.14061 11.8153 8.57826C12.1266 9.0337 12.3241 9.48052 12.3241 9.99999C12.3241 10.5195 12.1266 10.9663 11.8153 11.4217C11.5162 11.8594 11.077 12.3535 10.5341 12.9642L10.5115 12.9896L7.87371 15.9572C7.69025 16.1636 7.37421 16.1822 7.16782 15.9987Z" fill="current"/>
</svg>
